<svg xmlns="http://www.w3.org/2000/svg" xmlns:xlink="http://www.w3.org/1999/xlink" width="375" viewBox="0 0 375 375" height="375" version="1.0"><defs><g id="a"><path d="M 3.921875 -39.203125 L 21 -39.203125 C 26 -39.203125 29.878906 -38.015625 32.640625 -35.640625 C 35.410156 -33.273438 36.796875 -29.90625 36.796875 -25.53125 C 36.796875 -20.9375 35.410156 -17.367188 32.640625 -14.828125 C 29.878906 -12.296875 26 -11.03125 21 -11.03125 L 13.890625 -11.03125 L 13.890625 0 L 3.921875 0 Z M 13.890625 -31.359375 L 13.890625 -18.875 L 20.5 -18.875 C 22.695312 -18.875 24.394531 -19.414062 25.59375 -20.5 C 26.789062 -21.582031 27.390625 -23.148438 27.390625 -25.203125 C 27.390625 -27.210938 26.789062 -28.738281 25.59375 -29.78125 C 24.394531 -30.832031 22.695312 -31.359375 20.5 -31.359375 Z M 13.890625 -31.359375"/></g><g id="b"><path d="M 27.546875 0 L 21.734375 -11.03125 L 13.890625 -11.03125 L 13.890625 0 L 3.921875 0 L 3.921875 -39.203125 L 21.453125 -39.203125 C 26.640625 -39.203125 30.648438 -38.015625 33.484375 -35.640625 C 36.328125 -33.273438 37.75 -29.90625 37.75 -25.53125 C 37.75 -19.488281 35.375 -15.289062 30.625 -12.9375 L 38.859375 0 Z M 13.890625 -18.875 L 21.453125 -18.875 C 23.617188 -18.875 25.296875 -19.414062 26.484375 -20.5 C 27.679688 -21.582031 28.28125 -23.148438 28.28125 -25.203125 C 28.28125 -27.210938 27.679688 -28.738281 26.484375 -29.78125 C 25.296875 -30.832031 23.617188 -31.359375 21.453125 -31.359375 L 13.890625 -31.359375 Z M 13.890625 -18.875"/></g><g id="c"><path d="M 29.953125 -7.21875 L 12.828125 -7.21875 L 9.96875 0 L -0.28125 0 L 16.625 -39.203125 L 26.875 -39.203125 L 43.40625 0 L 32.765625 0 Z M 27.046875 -14.78125 L 21.453125 -29.28125 L 15.734375 -14.78125 Z M 27.046875 -14.78125"/></g><g id="d"><path d="M 29.453125 0 L 19.09375 -15.40625 L 13.890625 -9.625 L 13.890625 0 L 3.921875 0 L 3.921875 -39.203125 L 13.890625 -39.203125 L 13.890625 -22.234375 L 28.890625 -39.203125 L 40.4375 -39.203125 L 25.875 -22.953125 L 41.390625 0 Z M 29.453125 0"/></g><g id="e"><path d="M 18.984375 -39.640625 C 24.847656 -39.640625 30 -38.1875 34.4375 -35.28125 L 30.6875 -27.5 C 28.632812 -28.6875 26.429688 -29.660156 24.078125 -30.421875 C 21.722656 -31.191406 19.742188 -31.578125 18.140625 -31.578125 C 15.265625 -31.578125 13.828125 -30.628906 13.828125 -28.734375 C 13.828125 -27.492188 14.535156 -26.5 15.953125 -25.75 C 17.378906 -25.007812 19.109375 -24.367188 21.140625 -23.828125 C 23.171875 -23.285156 25.203125 -22.628906 27.234375 -21.859375 C 29.273438 -21.097656 31.003906 -19.859375 32.421875 -18.140625 C 33.835938 -16.421875 34.546875 -14.253906 34.546875 -11.640625 C 34.546875 -7.867188 33.070312 -4.925781 30.125 -2.8125 C 27.175781 -0.707031 23.425781 0.34375 18.875 0.34375 C 15.625 0.34375 12.410156 -0.21875 9.234375 -1.34375 C 6.066406 -2.46875 3.304688 -4 0.953125 -5.9375 L 4.8125 -13.609375 C 6.789062 -11.890625 9.125 -10.476562 11.8125 -9.375 C 14.5 -8.28125 16.890625 -7.734375 18.984375 -7.734375 C 20.585938 -7.734375 21.835938 -8.019531 22.734375 -8.59375 C 23.628906 -9.175781 24.078125 -10.023438 24.078125 -11.140625 C 24.078125 -12.222656 23.5625 -13.128906 22.53125 -13.859375 C 21.507812 -14.585938 20.234375 -15.128906 18.703125 -15.484375 C 17.171875 -15.835938 15.507812 -16.3125 13.71875 -16.90625 C 11.925781 -17.507812 10.265625 -18.164062 8.734375 -18.875 C 7.203125 -19.582031 5.921875 -20.707031 4.890625 -22.25 C 3.867188 -23.800781 3.359375 -25.660156 3.359375 -27.828125 C 3.359375 -31.410156 4.785156 -34.273438 7.640625 -36.421875 C 10.492188 -38.566406 14.273438 -39.640625 18.984375 -39.640625 Z M 18.984375 -39.640625"/></g><g id="f"><path d="M 14.21875 -30.859375 L 14.21875 -24.03125 C 14.21875 -21.96875 13.863281 -20.421875 13.15625 -19.390625 C 12.445312 -18.367188 11.234375 -17.671875 9.515625 -17.296875 C 11.234375 -16.890625 12.445312 -16.160156 13.15625 -15.109375 C 13.863281 -14.066406 14.21875 -12.539062 14.21875 -10.53125 L 14.21875 -3.75 C 14.21875 -2.40625 14.5625 -1.460938 15.25 -0.921875 C 15.945312 -0.378906 17.25 -0.109375 19.15625 -0.109375 L 19.15625 7.0625 L 15.40625 7.0625 C 11.78125 7.0625 9.238281 6.472656 7.78125 5.296875 C 6.320312 4.117188 5.59375 2.09375 5.59375 -0.78125 L 5.59375 -11.140625 C 5.59375 -12.035156 5.429688 -12.671875 5.109375 -13.046875 C 4.796875 -13.421875 4.269531 -13.609375 3.53125 -13.609375 L 1.34375 -13.609375 L 1.34375 -21 L 3.53125 -21 C 4.269531 -21 4.796875 -21.175781 5.109375 -21.53125 C 5.429688 -21.882812 5.59375 -22.507812 5.59375 -23.40625 L 5.59375 -33.828125 C 5.59375 -36.703125 6.320312 -38.71875 7.78125 -39.875 C 9.238281 -41.03125 11.78125 -41.609375 15.40625 -41.609375 L 19.15625 -41.609375 L 19.15625 -34.5 C 17.25 -34.5 15.945312 -34.226562 15.25 -33.6875 C 14.5625 -33.144531 14.21875 -32.203125 14.21875 -30.859375 Z M 14.21875 -30.859375"/></g><g id="g"><path d="M 17.859375 -14.109375 L 3.078125 -14.109375 L 3.078125 -20.21875 L 17.859375 -20.21875 Z M 17.859375 -14.109375"/></g><g id="h"><path d="M 21.5 -21 L 21.5 -13.609375 L 19.375 -13.609375 C 18.625 -13.609375 18.082031 -13.421875 17.75 -13.046875 C 17.414062 -12.671875 17.25 -12.035156 17.25 -11.140625 L 17.25 -0.78125 C 17.25 2.09375 16.519531 4.117188 15.0625 5.296875 C 13.601562 6.472656 11.066406 7.0625 7.453125 7.0625 L 3.75 7.0625 L 3.75 -0.109375 C 5.613281 -0.109375 6.898438 -0.378906 7.609375 -0.921875 C 8.328125 -1.460938 8.6875 -2.40625 8.6875 -3.75 L 8.6875 -10.53125 C 8.6875 -12.582031 9.03125 -14.117188 9.71875 -15.140625 C 10.40625 -16.171875 11.628906 -16.875 13.390625 -17.25 C 11.628906 -17.65625 10.40625 -18.367188 9.71875 -19.390625 C 9.03125 -20.421875 8.6875 -21.96875 8.6875 -24.03125 L 8.6875 -30.859375 C 8.6875 -32.203125 8.328125 -33.144531 7.609375 -33.6875 C 6.898438 -34.226562 5.613281 -34.5 3.75 -34.5 L 3.75 -41.609375 L 7.453125 -41.609375 C 11.066406 -41.609375 13.601562 -41.03125 15.0625 -39.875 C 16.519531 -38.71875 17.25 -36.703125 17.25 -33.828125 L 17.25 -23.40625 C 17.25 -22.507812 17.40625 -21.882812 17.71875 -21.53125 C 18.039062 -21.175781 18.59375 -21 19.375 -21 Z M 21.5 -21"/></g></defs><g fill="#FFF"><use x=".774" y="235.533" xmlns:xlink="http://www.w3.org/1999/xlink" xlink:href="#a" xlink:type="simple" xlink:actuate="onLoad" xlink:show="embed"/></g><g fill="#FFF"><use x="50.049" y="235.533" xmlns:xlink="http://www.w3.org/1999/xlink" xlink:href="#b" xlink:type="simple" xlink:actuate="onLoad" xlink:show="embed"/></g><g fill="#FFF"><use x="101.787" y="235.533" xmlns:xlink="http://www.w3.org/1999/xlink" xlink:href="#c" xlink:type="simple" xlink:actuate="onLoad" xlink:show="embed"/></g><g fill="#FFF"><use x="156.101" y="235.533" xmlns:xlink="http://www.w3.org/1999/xlink" xlink:href="#d" xlink:type="simple" xlink:actuate="onLoad" xlink:show="embed"/></g><g fill="#FFF"><use x="209.127" y="235.533" xmlns:xlink="http://www.w3.org/1999/xlink" xlink:href="#c" xlink:type="simple" xlink:actuate="onLoad" xlink:show="embed"/></g><g fill="#FFF"><use x="263.441" y="235.533" xmlns:xlink="http://www.w3.org/1999/xlink" xlink:href="#e" xlink:type="simple" xlink:actuate="onLoad" xlink:show="embed"/></g><g fill="#6610F2"><use x="310.479" y="231.613" xmlns:xlink="http://www.w3.org/1999/xlink" xlink:href="#f" xlink:type="simple" xlink:actuate="onLoad" xlink:show="embed"/></g><g fill="#6610F2"><use x="326.044" y="231.613" xmlns:xlink="http://www.w3.org/1999/xlink" xlink:href="#g" xlink:type="simple" xlink:actuate="onLoad" xlink:show="embed"/></g><g fill="#6610F2"><use x="342.617" y="231.613" xmlns:xlink="http://www.w3.org/1999/xlink" xlink:href="#h" xlink:type="simple" xlink:actuate="onLoad" xlink:show="embed"/></g></svg>