<svg xmlns="http://www.w3.org/2000/svg" xmlns:xlink="http://www.w3.org/1999/xlink" viewBox="0,0,256,256" width="30px" height="30px" fill-rule="nonzero"><g fill="none" fill-rule="nonzero" stroke="none" stroke-width="1" stroke-linecap="butt" stroke-linejoin="miter" stroke-miterlimit="10" stroke-dasharray="" stroke-dashoffset="0" font-family="none" font-weight="none" font-size="none" text-anchor="none" style="mix-blend-mode: normal"><g transform="scale(6.4,6.4)"><path d="M37.005,31.5c-0.975,0 -1.91,-0.463 -2.502,-1.237l-5.599,-7.321l-5.6,7.321c-0.592,0.774 -1.527,1.237 -2.502,1.237h-2.22l8.433,-11.028l-8.39,-10.972h2.22c0.975,0 1.911,0.462 2.502,1.236l5.556,7.266l5.557,-7.266c0.591,-0.774 1.527,-1.236 2.502,-1.236h2.22l-8.391,10.972l8.434,11.028z" fill="#fdfdfd"></path><path d="M38.17,10l-8.008,10.472l8.051,10.528h-1.208c-0.825,0 -1.604,-0.385 -2.105,-1.04l-5.996,-7.841l-5.996,7.841c-0.501,0.656 -1.28,1.04 -2.105,1.04h-1.208l8.051,-10.528l-8.01,-10.472h1.208c0.825,0 1.604,0.385 2.105,1.04l5.954,7.785l5.954,-7.785c0.501,-0.656 1.28,-1.04 2.105,-1.04h1.208M40.194,9h-2.024h-1.208c-1.129,0 -2.213,0.536 -2.899,1.433l-5.159,6.747l-5.159,-6.747c-0.687,-0.897 -1.771,-1.433 -2.9,-1.433h-1.208h-2.024l1.229,1.607l7.544,9.865l-7.586,9.92l-1.23,1.608h2.024h1.208c1.129,0 2.213,-0.536 2.899,-1.433l5.202,-6.803l5.202,6.803c0.686,0.897 1.77,1.433 2.9,1.433h1.208h2.024l-1.229,-1.607l-7.586,-9.92l7.544,-9.865l1.228,-1.608z" fill="#14f1f1"></path><g><path d="M10,32.5c-5.238,0 -9.5,-4.409 -9.5,-9.828v-4.345c0,-5.418 4.262,-9.827 9.5,-9.827c5.238,0 9.5,4.408 9.5,9.827v4.172l-16,0.001v0.172c0,3.765 2.916,6.828 6.5,6.828c1.977,0 3.893,-0.996 5.125,-2.663c0.628,-0.851 1.551,-1.338 2.532,-1.338h1.469l-0.248,0.673c-1.394,3.785 -4.961,6.328 -8.878,6.328zM16.5,19.5v-1.173c0,-3.765 -2.916,-6.827 -6.5,-6.827c-3.584,0 -6.5,3.062 -6.5,6.827v1.173z" fill="#fdfdfd"></path><path d="M10,9c4.962,0 9,4.185 9,9.327v3.673h-16v0.672c0,4.041 3.14,7.328 7,7.328c2.188,0 4.223,-1.102 5.527,-2.866c0.508,-0.687 1.275,-1.134 2.13,-1.134h0.752c0,0 0,0 0.001,0.001c-1.322,3.588 -4.704,6 -8.41,6c-4.962,0 -9,-4.185 -9,-9.328v-4.345c0,-5.143 4.038,-9.328 9,-9.328M3,20h14v-1.673c0,-4.04 -3.14,-7.327 -7,-7.327c-3.86,0 -7,3.287 -7,7.327v1.673M10,8c-5.514,0 -10,4.633 -10,10.327v4.345c0,5.695 4.486,10.328 10,10.328c4.125,0 7.881,-2.674 9.348,-6.654l0.495,-1.344l-1.432,-0.002h-0.753c-1.142,0 -2.211,0.561 -2.935,1.54c-1.139,1.54 -2.904,2.46 -4.723,2.46c-3.204,0 -5.83,-2.663 -5.992,-6h14.992h1v-1v-3.672c0,-5.695 -4.486,-10.328 -10,-10.328zM4,19v-0.673c0,-3.489 2.692,-6.327 6,-6.327c3.308,0 6,2.838 6,6.327v0.673h-12z" fill="#14f1f1"></path></g></g></g></svg>