<svg xmlns="http://www.w3.org/2000/svg" xmlns:xlink="http://www.w3.org/1999/xlink" width="375" viewBox="0 0 375 375" height="375" version="1.0"><defs><g id="a"><path d="M 2.765625 -27.703125 L 14.84375 -27.703125 C 18.375 -27.703125 21.113281 -26.863281 23.0625 -25.1875 C 25.019531 -23.507812 26 -21.128906 26 -18.046875 C 26 -14.796875 25.019531 -12.273438 23.0625 -10.484375 C 21.113281 -8.691406 18.375 -7.796875 14.84375 -7.796875 L 9.8125 -7.796875 L 9.8125 0 L 2.765625 0 Z M 9.8125 -22.15625 L 9.8125 -13.34375 L 14.484375 -13.34375 C 16.046875 -13.34375 17.25 -13.722656 18.09375 -14.484375 C 18.9375 -15.253906 19.359375 -16.363281 19.359375 -17.8125 C 19.359375 -19.238281 18.9375 -20.316406 18.09375 -21.046875 C 17.25 -21.785156 16.046875 -22.15625 14.484375 -22.15625 Z M 9.8125 -22.15625"/></g><g id="b"><path d="M 19.46875 0 L 15.359375 -7.796875 L 9.8125 -7.796875 L 9.8125 0 L 2.765625 0 L 2.765625 -27.703125 L 15.15625 -27.703125 C 18.820312 -27.703125 21.65625 -26.863281 23.65625 -25.1875 C 25.664062 -23.507812 26.671875 -21.128906 26.671875 -18.046875 C 26.671875 -13.773438 25 -10.804688 21.65625 -9.140625 L 27.46875 0 Z M 9.8125 -13.34375 L 15.15625 -13.34375 C 16.6875 -13.34375 17.875 -13.722656 18.71875 -14.484375 C 19.5625 -15.253906 19.984375 -16.363281 19.984375 -17.8125 C 19.984375 -19.238281 19.5625 -20.316406 18.71875 -21.046875 C 17.875 -21.785156 16.6875 -22.15625 15.15625 -22.15625 L 9.8125 -22.15625 Z M 9.8125 -13.34375"/></g><g id="c"><path d="M 21.171875 -5.109375 L 9.0625 -5.109375 L 7.046875 0 L -0.203125 0 L 11.75 -27.703125 L 19 -27.703125 L 30.671875 0 L 23.15625 0 Z M 19.109375 -10.453125 L 15.15625 -20.703125 L 11.125 -10.453125 Z M 19.109375 -10.453125"/></g><g id="d"><path d="M 20.8125 0 L 13.5 -10.890625 L 9.8125 -6.8125 L 9.8125 0 L 2.765625 0 L 2.765625 -27.703125 L 9.8125 -27.703125 L 9.8125 -15.71875 L 20.421875 -27.703125 L 28.578125 -27.703125 L 18.28125 -16.234375 L 29.25 0 Z M 20.8125 0"/></g><g id="e"><path d="M 13.421875 -28.015625 C 17.554688 -28.015625 21.195312 -26.988281 24.34375 -24.9375 L 21.6875 -19.4375 C 20.238281 -20.28125 18.679688 -20.972656 17.015625 -21.515625 C 15.359375 -22.054688 13.960938 -22.328125 12.828125 -22.328125 C 10.796875 -22.328125 9.78125 -21.648438 9.78125 -20.296875 C 9.78125 -19.429688 10.28125 -18.734375 11.28125 -18.203125 C 12.28125 -17.679688 13.5 -17.226562 14.9375 -16.84375 C 16.375 -16.457031 17.8125 -15.992188 19.25 -15.453125 C 20.6875 -14.910156 21.90625 -14.03125 22.90625 -12.8125 C 23.914062 -11.601562 24.421875 -10.078125 24.421875 -8.234375 C 24.421875 -5.566406 23.378906 -3.488281 21.296875 -2 C 19.210938 -0.507812 16.5625 0.234375 13.34375 0.234375 C 11.039062 0.234375 8.769531 -0.160156 6.53125 -0.953125 C 4.289062 -1.742188 2.335938 -2.820312 0.671875 -4.1875 L 3.40625 -9.625 C 4.800781 -8.40625 6.445312 -7.40625 8.34375 -6.625 C 10.25 -5.851562 11.941406 -5.46875 13.421875 -5.46875 C 14.554688 -5.46875 15.4375 -5.671875 16.0625 -6.078125 C 16.695312 -6.484375 17.015625 -7.082031 17.015625 -7.875 C 17.015625 -8.644531 16.648438 -9.285156 15.921875 -9.796875 C 15.203125 -10.304688 14.300781 -10.6875 13.21875 -10.9375 C 12.132812 -11.1875 10.957031 -11.519531 9.6875 -11.9375 C 8.425781 -12.363281 7.253906 -12.828125 6.171875 -13.328125 C 5.085938 -13.835938 4.179688 -14.640625 3.453125 -15.734375 C 2.734375 -16.828125 2.375 -18.140625 2.375 -19.671875 C 2.375 -22.203125 3.382812 -24.222656 5.40625 -25.734375 C 7.425781 -27.253906 10.097656 -28.015625 13.421875 -28.015625 Z M 13.421875 -28.015625"/></g><g id="f"><path d="M 10.046875 -21.8125 L 10.046875 -16.984375 C 10.046875 -15.523438 9.796875 -14.429688 9.296875 -13.703125 C 8.796875 -12.984375 7.941406 -12.492188 6.734375 -12.234375 C 7.941406 -11.941406 8.796875 -11.425781 9.296875 -10.6875 C 9.796875 -9.945312 10.046875 -8.863281 10.046875 -7.4375 L 10.046875 -2.65625 C 10.046875 -1.707031 10.289062 -1.039062 10.78125 -0.65625 C 11.269531 -0.269531 12.1875 -0.078125 13.53125 -0.078125 L 13.53125 4.984375 L 10.890625 4.984375 C 8.328125 4.984375 6.53125 4.566406 5.5 3.734375 C 4.46875 2.910156 3.953125 1.484375 3.953125 -0.546875 L 3.953125 -7.875 C 3.953125 -8.507812 3.835938 -8.957031 3.609375 -9.21875 C 3.390625 -9.488281 3.019531 -9.625 2.5 -9.625 L 0.953125 -9.625 L 0.953125 -14.84375 L 2.5 -14.84375 C 3.019531 -14.84375 3.390625 -14.96875 3.609375 -15.21875 C 3.835938 -15.46875 3.953125 -15.910156 3.953125 -16.546875 L 3.953125 -23.90625 C 3.953125 -25.9375 4.46875 -27.359375 5.5 -28.171875 C 6.53125 -28.992188 8.328125 -29.40625 10.890625 -29.40625 L 13.53125 -29.40625 L 13.53125 -24.375 C 12.1875 -24.375 11.269531 -24.179688 10.78125 -23.796875 C 10.289062 -23.421875 10.046875 -22.757812 10.046875 -21.8125 Z M 10.046875 -21.8125"/></g><g id="g"><path d="M 12.625 -9.96875 L 2.171875 -9.96875 L 2.171875 -14.28125 L 12.625 -14.28125 Z M 12.625 -9.96875"/></g><g id="h"><path d="M 15.203125 -14.84375 L 15.203125 -9.625 L 13.6875 -9.625 C 13.164062 -9.625 12.785156 -9.488281 12.546875 -9.21875 C 12.304688 -8.957031 12.1875 -8.507812 12.1875 -7.875 L 12.1875 -0.546875 C 12.1875 1.484375 11.671875 2.910156 10.640625 3.734375 C 9.617188 4.566406 7.828125 4.984375 5.265625 4.984375 L 2.65625 4.984375 L 2.65625 -0.078125 C 3.96875 -0.078125 4.875 -0.269531 5.375 -0.65625 C 5.882812 -1.039062 6.140625 -1.707031 6.140625 -2.65625 L 6.140625 -7.4375 C 6.140625 -8.894531 6.378906 -9.984375 6.859375 -10.703125 C 7.347656 -11.429688 8.210938 -11.925781 9.453125 -12.1875 C 8.210938 -12.476562 7.347656 -12.984375 6.859375 -13.703125 C 6.378906 -14.429688 6.140625 -15.523438 6.140625 -16.984375 L 6.140625 -21.8125 C 6.140625 -22.757812 5.882812 -23.421875 5.375 -23.796875 C 4.875 -24.179688 3.96875 -24.375 2.65625 -24.375 L 2.65625 -29.40625 L 5.265625 -29.40625 C 7.828125 -29.40625 9.617188 -28.992188 10.640625 -28.171875 C 11.671875 -27.359375 12.1875 -25.9375 12.1875 -23.90625 L 12.1875 -16.546875 C 12.1875 -15.910156 12.296875 -15.46875 12.515625 -15.21875 C 12.742188 -14.96875 13.132812 -14.84375 13.6875 -14.84375 Z M 15.203125 -14.84375"/></g></defs><g fill="#FFF"><use x="33.487" y="219.104" xmlns:xlink="http://www.w3.org/1999/xlink" xlink:href="#a" xlink:type="simple" xlink:actuate="onLoad" xlink:show="embed"/></g><g fill="#FFF"><use x="68.316" y="219.104" xmlns:xlink="http://www.w3.org/1999/xlink" xlink:href="#b" xlink:type="simple" xlink:actuate="onLoad" xlink:show="embed"/></g><g fill="#FFF"><use x="104.885" y="219.104" xmlns:xlink="http://www.w3.org/1999/xlink" xlink:href="#c" xlink:type="simple" xlink:actuate="onLoad" xlink:show="embed"/></g><g fill="#FFF"><use x="143.275" y="219.104" xmlns:xlink="http://www.w3.org/1999/xlink" xlink:href="#d" xlink:type="simple" xlink:actuate="onLoad" xlink:show="embed"/></g><g fill="#FFF"><use x="180.755" y="219.104" xmlns:xlink="http://www.w3.org/1999/xlink" xlink:href="#c" xlink:type="simple" xlink:actuate="onLoad" xlink:show="embed"/></g><g fill="#FFF"><use x="219.145" y="219.104" xmlns:xlink="http://www.w3.org/1999/xlink" xlink:href="#e" xlink:type="simple" xlink:actuate="onLoad" xlink:show="embed"/></g><g fill="#6610F2"><use x="254.806" y="218.354" xmlns:xlink="http://www.w3.org/1999/xlink" xlink:href="#f" xlink:type="simple" xlink:actuate="onLoad" xlink:show="embed"/></g><g fill="#6610F2"><use x="265.806" y="218.354" xmlns:xlink="http://www.w3.org/1999/xlink" xlink:href="#g" xlink:type="simple" xlink:actuate="onLoad" xlink:show="embed"/></g><g fill="#6610F2"><use x="277.519" y="218.354" xmlns:xlink="http://www.w3.org/1999/xlink" xlink:href="#h" xlink:type="simple" xlink:actuate="onLoad" xlink:show="embed"/></g></svg>